<svg fill="#000000" xmlns="http://www.w3.org/2000/svg"  viewBox="0 0 48 48" width="500px" height="500px"><path d="M 11.5 6 C 8.4802259 6 6 8.4802259 6 11.5 L 6 17.5 A 1.50015 1.50015 0 1 0 9 17.5 L 9 11.5 C 9 10.101774 10.101774 9 11.5 9 L 17.5 9 A 1.50015 1.50015 0 1 0 17.5 6 L 11.5 6 z M 30.5 6 A 1.50015 1.50015 0 1 0 30.5 9 L 36.5 9 C 37.898226 9 39 10.101774 39 11.5 L 39 17.5 A 1.50015 1.50015 0 1 0 42 17.5 L 42 11.5 C 42 8.4802259 39.519774 6 36.5 6 L 30.5 6 z M 7.4765625 28.978516 A 1.50015 1.50015 0 0 0 6 30.5 L 6 36.5 C 6 39.519774 8.4802259 42 11.5 42 L 17.5 42 A 1.50015 1.50015 0 1 0 17.5 39 L 11.5 39 C 10.101774 39 9 37.898226 9 36.5 L 9 30.5 A 1.50015 1.50015 0 0 0 7.4765625 28.978516 z M 40.476562 28.978516 A 1.50015 1.50015 0 0 0 39 30.5 L 39 36.5 C 39 37.898226 37.898226 39 36.5 39 L 30.5 39 A 1.50015 1.50015 0 1 0 30.5 42 L 36.5 42 C 39.519774 42 42 39.519774 42 36.5 L 42 30.5 A 1.50015 1.50015 0 0 0 40.476562 28.978516 z"/></svg>