<?xml version="1.0" encoding="utf-8"?>
<!-- Generator: Adobe Illustrator 25.0.1, SVG Export Plug-In . SVG Version: 6.00 Build 0)  -->
<svg version="1.1" id="Layer_1" xmlns="http://www.w3.org/2000/svg" xmlns:xlink="http://www.w3.org/1999/xlink" x="0px" y="0px"
	 viewBox="0 0 500 500" style="enable-background:new 0 0 500 500;" xml:space="preserve">
<path d="M57.3,89c-8.6-0.1-15.7,6.8-15.8,15.4c-0.1,8.6,6.8,15.7,15.4,15.8c0.1,0,0.3,0,0.4,0h155.1c8.6,0.1,15.7-6.8,15.8-15.4
	s-6.8-15.7-15.4-15.8c-0.1,0-0.3,0-0.4,0H57.3z M393.9,131.8c-6.4,0-12.5,2.6-16.5,7.2c-3.6,4-5.6,9.3-5.6,14.9
	c0,5.6,2,10.9,5.6,14.9c4.1,4.6,10.1,7.2,16.5,7.2s12.5-2.6,16.5-7.2c3.6-4,5.6-9.3,5.6-14.9c0-5.6-2-10.9-5.6-14.9
	C406.3,134.4,400.3,131.8,393.9,131.8z M391.4,151.9c0.7-0.8,1.8-1.3,2.4-1.3c0.6,0.1,1.7,0.5,2.4,1.3c0.4,0.4,0.9,1.1,0.9,2
	s-0.5,1.5-0.9,2c-0.7,0.8-1.8,1.3-2.4,1.3c-0.6-0.1-1.7-0.5-2.4-1.3c-0.4-0.4-0.9-1.1-0.9-2S391,152.4,391.4,151.9z M422.1,89H291.9
	c-20.2,0-36.6,16.4-36.6,36.6v130.2c0,20.2,16.4,36.6,36.6,36.6h130.2c20.2,0,36.6-16.4,36.6-36.6V125.7
	C458.8,105.4,442.3,89,422.1,89z M427.1,213.3l-17.3-16.7l-0.5-0.5c-5.5-5.3-12.6-8.2-20.2-8.2c-7.6,0-14.8,2.9-20.2,8.2l-5.1,4.9
	l-26.6-25.7c-5.5-5.3-12.6-8.2-20.2-8.2c-7.5,0-14.6,2.9-20.1,8l-10.1,9.7v-59.3c0-2.9,2.2-5,5-5h130.2c2.9,0,5,2.2,5,5V213.3z
	 M286.9,228.9l30.1-29.1l24.1,23.3L302,260.9h-10.1c-2.9,0-5-2.2-5-5V228.9z M57.3,322.4c-8.6-0.1-15.7,6.8-15.8,15.4
	c-0.1,8.6,6.8,15.7,15.4,15.8c0.1,0,0.3,0,0.4,0h385.4c8.6,0.1,15.7-6.8,15.8-15.4c0.1-8.6-6.8-15.7-15.4-15.8c-0.1,0-0.3,0-0.4,0
	H57.3z M57.3,379.8c-8.6-0.1-15.7,6.8-15.8,15.4c-0.1,8.6,6.8,15.7,15.4,15.8c0.1,0,0.3,0,0.4,0h385.4c8.6,0.1,15.7-6.8,15.8-15.4
	c0.1-8.6-6.8-15.7-15.4-15.8c-0.1,0-0.3,0-0.4,0H57.3z M57.3,150c-8.6-0.1-15.7,6.8-15.8,15.4c-0.1,8.6,6.8,15.7,15.4,15.8
	c0.1,0,0.3,0,0.4,0h155.1c8.6,0.1,15.7-6.8,15.8-15.4s-6.8-15.7-15.4-15.8c-0.1,0-0.3,0-0.4,0H57.3z M57.3,262
	c-8.6-0.1-15.7,6.8-15.8,15.4c-0.1,8.6,6.8,15.7,15.4,15.8c0.1,0,0.3,0,0.4,0h155.1c8.6,0.1,15.7-6.8,15.8-15.4
	c0.1-8.6-6.8-15.7-15.4-15.8c-0.1,0-0.3,0-0.4,0H57.3z M57.3,207c-8.6-0.1-15.7,6.8-15.8,15.4c-0.1,8.6,6.8,15.7,15.4,15.8
	c0.1,0,0.3,0,0.4,0h155.1c8.6,0.1,15.7-6.8,15.8-15.4s-6.8-15.7-15.4-15.8c-0.1,0-0.3,0-0.4,0H57.3z"/>
</svg>
