<svg id="Layer_1" data-name="Layer 1" xmlns="http://www.w3.org/2000/svg" viewBox="0 0 500 500"><defs><style>.cls-1{fill:currentColor;}</style></defs><path class="cls-1" d="M36.11,41.52a15.63,15.63,0,0,0-9.42,28l52.09,41.67A15.63,15.63,0,0,0,98.31,86.75h0L46.22,45.08A15.63,15.63,0,0,0,36.11,41.52Zm427.31,0a15.65,15.65,0,0,0-9.64,3.56L401.69,86.75a15.63,15.63,0,0,0,19.53,24.42L473.31,69.5a15.63,15.63,0,0,0-9.89-28ZM250,41.67c-86.11,0-156.25,70.14-156.25,156.25v85.26L65,348.94c-7.29,16.67,5.67,36.48,23.87,36.48H187.5a62.5,62.5,0,1,0,125,0h98.65c18.2,0,31.16-19.81,23.87-36.48l-28.77-65.76V197.92C406.25,111.81,336.11,41.67,250,41.67Zm0,31.25a124.76,124.76,0,0,1,125,125v88.54a15.67,15.67,0,0,0,1.3,6.26l26.9,61.45H96.8l26.9-61.45a15.67,15.67,0,0,0,1.3-6.26V197.92A124.76,124.76,0,0,1,250,72.92ZM15.63,166.67a15.63,15.63,0,1,0-.45,31.25H57.29a15.63,15.63,0,1,0,.44-31.25H15.63Zm427.08,0a15.63,15.63,0,1,0-.44,31.25h42.11a15.63,15.63,0,0,0,.44-31.25H442.71Zm-224,218.75h62.5a31.25,31.25,0,1,1-62.5,0Z"/></svg>