<svg id="Layer_1" data-name="Layer 1" xmlns="http://www.w3.org/2000/svg" viewBox="0 0 500 500"><defs><style>.cls-1{fill:currentColor;}</style></defs><path class="cls-1" d="M250,41.67c-86.11,0-156.25,70.14-156.25,156.25v85.26L65,348.94c-7.29,16.67,5.67,36.48,23.87,36.48H187.5a62.5,62.5,0,1,0,125,0h98.65c18.2,0,31.16-19.81,23.87-36.48l-28.77-65.76V197.92C406.25,111.81,336.11,41.67,250,41.67Zm0,31.25a124.76,124.76,0,0,1,125,125v88.54a15.67,15.67,0,0,0,1.3,6.26l26.9,61.45H96.8l26.9-61.45a15.67,15.67,0,0,0,1.3-6.26V197.92A124.76,124.76,0,0,1,250,72.92Zm-31.25,312.5h62.5a31.25,31.25,0,1,1-62.5,0Z"/></svg>