<svg id="Layer_1" data-name="Layer 1" xmlns="http://www.w3.org/2000/svg" viewBox="0 0 500 500"><defs><style>.cls-1{fill:currentColor;}</style></defs><path class="cls-1" d="M36.11,41.52a15.63,15.63,0,0,0-9.42,28l52.09,41.67A15.63,15.63,0,0,0,98.31,86.75h0L46.22,45.08A15.63,15.63,0,0,0,36.11,41.52Zm427.31,0a15.65,15.65,0,0,0-9.64,3.56L401.69,86.75a15.63,15.63,0,0,0,19.53,24.42L473.31,69.5a15.63,15.63,0,0,0-9.89-28ZM250,41.67c-86.16,0-156.25,70.09-156.25,156.25v85.26L65,348.94a26.07,26.07,0,0,0,23.87,36.48h322.3A26.07,26.07,0,0,0,435,348.94l-28.77-65.76V197.92C406.25,111.76,336.16,41.67,250,41.67Zm-234.37,125a15.63,15.63,0,1,0-.45,31.25H57.29a15.63,15.63,0,1,0,.44-31.25H15.63Zm427.08,0a15.63,15.63,0,1,0-.44,31.25h42.11a15.63,15.63,0,0,0,.44-31.25H442.71ZM191.14,406.25a62.41,62.41,0,0,0,117.72,0Z"/></svg>