<svg id="Layer_1" data-name="Layer 1" xmlns="http://www.w3.org/2000/svg" viewBox="0 0 500 500"><defs><style>.cls-1{fill:currentColor;}</style></defs><path class="cls-1" d="M250,41.67C135.13,41.67,41.67,135.13,41.67,250c0,34.12,9,66,23.56,94.42L42.64,425.29C37.38,444.08,56,462.63,74.75,457.38l80.91-22.59c28.41,14.56,60.25,23.54,94.34,23.54,114.87,0,208.33-93.46,208.33-208.33S364.87,41.67,250,41.67Zm0,31.25a177.08,177.08,0,1,1-86,331.8,15.67,15.67,0,0,0-11.82-1.4L75.24,424.8l21.48-76.9a15.62,15.62,0,0,0-1.4-11.82A177,177,0,0,1,250,72.92Z"/></svg>