<svg id="Layer_1" data-name="Layer 1" xmlns="http://www.w3.org/2000/svg" viewBox="0 0 500 500"><defs><style>.cls-1{fill:currentColor;}</style></defs><path class="cls-1" d="M250,41.67a208.55,208.55,0,0,0-47.38,5.59,15.63,15.63,0,0,0-12,13.53L187.32,91a31.22,31.22,0,0,1-43.64,25.19h0L115.89,104a15.63,15.63,0,0,0-17.7,3.62,208,208,0,0,0-47.57,82,15.63,15.63,0,0,0,5.72,17.13L81,224.79a31.25,31.25,0,0,1,0,50.42l-24.63,18a15.63,15.63,0,0,0-5.72,17.13,207.81,207.81,0,0,0,47.57,82,15.64,15.64,0,0,0,17.7,3.6l27.77-12.23A31.25,31.25,0,0,1,187.32,409l3.31,30.23a15.65,15.65,0,0,0,12,13.51,203.32,203.32,0,0,0,94.78,0,15.63,15.63,0,0,0,12-13.53L312.68,409a31.25,31.25,0,0,1,43.64-25.21L384.11,396a15.64,15.64,0,0,0,17.7-3.6,208.05,208.05,0,0,0,47.57-82,15.63,15.63,0,0,0-5.72-17.13l-24.63-18a31.25,31.25,0,0,1,0-50.42l24.63-18a15.63,15.63,0,0,0,5.72-17.13,208.05,208.05,0,0,0-47.57-82,15.64,15.64,0,0,0-17.7-3.6l-27.79,12.23A31.25,31.25,0,0,1,312.68,91l-3.31-30.23a15.65,15.65,0,0,0-12-13.51A208.16,208.16,0,0,0,250,41.67Zm0,31.25c10.15,0,19.9,1.82,29.66,3.54l2,18a62.52,62.52,0,0,0,87.3,50.42l16.52-7.27a175.73,175.73,0,0,1,29.74,51.29l-14.65,10.75a62.49,62.49,0,0,0,0,100.78l14.65,10.75a175.73,175.73,0,0,1-29.74,51.29l-16.52-7.27a62.52,62.52,0,0,0-87.3,50.42l-2,18c-9.76,1.72-19.52,3.54-29.66,3.54s-19.89-1.82-29.66-3.54l-2-18a62.52,62.52,0,0,0-87.3-50.42l-16.52,7.27a175.37,175.37,0,0,1-29.74-51.29l14.65-10.75a62.52,62.52,0,0,0,0-100.81L84.82,188.84a175.65,175.65,0,0,1,29.76-51.29l16.5,7.27a62.5,62.5,0,0,0,87.3-50.4l2-18C230.1,74.74,239.86,72.92,250,72.92Zm0,93.75A83.33,83.33,0,1,0,333.33,250,83.56,83.56,0,0,0,250,166.67Zm0,31.25A52.08,52.08,0,1,1,197.92,250,51.84,51.84,0,0,1,250,197.92Z"/></svg>