<svg id="Layer_1" data-name="Layer 1" xmlns="http://www.w3.org/2000/svg" viewBox="0 0 500 500"><defs><style>.cls-1{fill:currentColor;}</style></defs><path class="cls-1" d="M161.46,52.08a67.72,67.72,0,0,0-57.09,31.36c1.67-.11,3.34-.11,5-.11H349a78.15,78.15,0,0,1,78.12,78.13V328.13c0,1.66,0,3.33-.1,5A67.71,67.71,0,0,0,458.33,276V161.46A109.5,109.5,0,0,0,349,52.08Zm-52.08,52.09a68,68,0,0,0-67.71,67.71V328.13a68,68,0,0,0,67.71,67.7h5.2v47.24c0,20.33,24.93,33,41.36,21.08l93.94-68.32h88.66a68,68,0,0,0,67.71-67.7V171.88a68,68,0,0,0-67.71-67.71Zm0,31.25H338.54A36.23,36.23,0,0,1,375,171.88V328.13a36.23,36.23,0,0,1-36.46,36.45H244.79a15.65,15.65,0,0,0-9.19,3l-89.77,65.29V380.21a15.62,15.62,0,0,0-15.62-15.63H109.38a36.23,36.23,0,0,1-36.46-36.45V171.88a37.54,37.54,0,0,1,.73-7.41A36.19,36.19,0,0,1,109.38,135.42Z"/></svg>