<svg id="Layer_1" data-name="Layer 1" xmlns="http://www.w3.org/2000/svg" viewBox="0 0 500 500"><defs><style>.cls-1{fill:currentColor;}</style></defs><path class="cls-1" d="M192.71,52.08a57.53,57.53,0,0,0-57.29,57.3V338.54a57.52,57.52,0,0,0,57.29,57.29H359.38a57.53,57.53,0,0,0,57.29-57.29V109.38a57.54,57.54,0,0,0-57.29-57.3Zm0,31.25H359.38a25.82,25.82,0,0,1,26,26.05V338.54a25.81,25.81,0,0,1-26,26H192.71a25.8,25.8,0,0,1-26-26V109.38A25.81,25.81,0,0,1,192.71,83.33Zm-78.13,20.84-12.69,8.46A41.66,41.66,0,0,0,83.33,147.3V349a99,99,0,0,0,99,99H321.45a41.63,41.63,0,0,0,34.67-18.56l8.46-12.69H182.29A67.72,67.72,0,0,1,114.58,349Z"/></svg>