<svg id="Layer_1" data-name="Layer 1" xmlns="http://www.w3.org/2000/svg" viewBox="0 0 500 500"><defs><style>.cls-1{fill:currentColor;}</style></defs><path class="cls-1" d="M109.38,62.5a68,68,0,0,0-67.71,67.71V359.74c0,20.33,24.89,33,41.34,21.08h0l45-32.74a68,68,0,0,0,64.68,47.75H323L417,464.15h0c16.45,11.94,41.34-.75,41.34-21.08V213.54a68,68,0,0,0-67.7-67.71H375V130.21A68,68,0,0,0,307.29,62.5Zm0,31.25H307.29a36.24,36.24,0,0,1,36.46,36.46V244.79a36.24,36.24,0,0,1-36.46,36.46H171.88a15.65,15.65,0,0,0-9.2,3L72.92,349.53V130.21A36.23,36.23,0,0,1,109.38,93.75ZM375,177.08h15.63a36.23,36.23,0,0,1,36.45,36.46V432.86l-89.76-65.29a15.65,15.65,0,0,0-9.19-3H192.71a36.23,36.23,0,0,1-36.46-36.45v-.57L177,312.5H307.29A68,68,0,0,0,375,244.79Z"/></svg>