<svg id="Layer_1" data-name="Layer 1" xmlns="http://www.w3.org/2000/svg" viewBox="0 0 500 500"><defs><style>.cls-1{fill:currentColor;}</style></defs><path class="cls-1" d="M109.38,83.33A68,68,0,0,0,41.67,151V349a68,68,0,0,0,67.71,67.71H390.63A68,68,0,0,0,458.33,349V151a68,68,0,0,0-67.7-67.71Zm0,31.25H390.63A36.23,36.23,0,0,1,427.08,151v11.52L250,258.28,72.92,162.56V151A36.23,36.23,0,0,1,109.38,114.58Zm-36.46,83.5,169.65,91.71a15.6,15.6,0,0,0,14.86,0l169.65-91.71V349a36.23,36.23,0,0,1-36.45,36.46H109.38A36.23,36.23,0,0,1,72.92,349Z"/></svg>