<svg id="Layer_1" data-name="Layer 1" xmlns="http://www.w3.org/2000/svg" viewBox="0 0 500 500"><defs><style>.cls-1{fill:currentColor;}</style></defs><path class="cls-1" d="M119.79,62.5A57.54,57.54,0,0,0,62.5,119.79V380.21a57.54,57.54,0,0,0,57.29,57.29h187.5a57.53,57.53,0,0,0,57.29-57.29,15.63,15.63,0,1,0-31.25-.44v.44a25.81,25.81,0,0,1-26,26H119.79a25.81,25.81,0,0,1-26-26V119.79a25.81,25.81,0,0,1,26-26h187.5a25.81,25.81,0,0,1,26,26,15.63,15.63,0,1,0,31.25.44,3.23,3.23,0,0,0,0-.44A57.53,57.53,0,0,0,307.29,62.5Zm229,98.8a15.62,15.62,0,0,0-10.89,26.83l46.25,46.25H161.46a15.63,15.63,0,1,0-.44,31.25H384.16l-46.25,46.24a15.63,15.63,0,1,0,21.65,22.54q.22-.21.45-.45l72.91-72.91a15.63,15.63,0,0,0,0-22.1L360,166A15.65,15.65,0,0,0,348.8,161.3Z"/></svg>