<svg id="Layer_1" data-name="Layer 1" xmlns="http://www.w3.org/2000/svg" viewBox="0 0 500 500"><defs><style>.cls-1{fill:currentColor;}</style></defs><path class="cls-1" d="M250,83.33c-142.87,0-210.71,122.48-227.17,157.43a21.64,21.64,0,0,0,0,18.44c16.46,35,84.3,157.47,227.17,157.47,142.38,0,210.26-121.61,227-157.07a22.41,22.41,0,0,0,0-19.2C460.26,204.94,392.38,83.33,250,83.33ZM250,120A130,130,0,1,1,120,250,130,130,0,0,1,250,120Zm0,67.5A62.5,62.5,0,1,0,312.5,250,62.5,62.5,0,0,0,250,187.5Z"/></svg>