<?xml version="1.0" encoding="utf-8"?>
<!-- Generator: Adobe Illustrator 25.0.1, SVG Export Plug-In . SVG Version: 6.00 Build 0)  -->
<svg version="1.1" id="Layer_1" xmlns="http://www.w3.org/2000/svg" xmlns:xlink="http://www.w3.org/1999/xlink" x="0px" y="0px"
	 viewBox="0 0 500 500" style="enable-background:new 0 0 500 500;" xml:space="preserve">
<g>
	<path d="M250,149.3c-54.4,0-98.8,45.2-98.8,100.7c0,55.4,44.4,100.7,98.8,100.7s98.9-45.3,98.9-100.7
		C348.8,194.6,304.4,149.3,250,149.3z"/>
</g>
<path d="M250,131.5c28.2,0,56.1,4.3,83.1,12.9c24.3,7.7,47.6,18.9,67.4,32.3c18.1,12.4,33,26.4,43,40.6c8.4,11.9,13,23.5,13,32.7
	s-4.6,20.8-13,32.7c-10,14.2-24.9,28.3-43,40.6c-19.7,13.5-43,24.7-67.4,32.3c-27,8.5-54.9,12.9-83.1,12.9s-56.1-4.3-83.1-12.9
	c-24.3-7.7-47.6-18.9-67.4-32.3c-18.1-12.4-33-26.4-43-40.6c-8.4-11.9-13-23.5-13-32.7s4.6-20.8,13-32.7c10-14.2,24.9-28.3,43-40.6
	c19.7-13.5,43-24.7,67.4-32.3C193.9,135.8,221.8,131.5,250,131.5 M250,100.5c-131.2,0-237.5,85.1-237.5,149.5S118.8,399.5,250,399.5
	S487.5,314.4,487.5,250S381.2,100.5,250,100.5L250,100.5z"/>
</svg>
