<svg id="Layer_1" data-name="Layer 1" xmlns="http://www.w3.org/2000/svg" viewBox="0 0 500 500"><defs><style>.cls-1{fill:currentColor;}</style></defs><path class="cls-1" d="M477,240.4C460.26,204.94,392.38,83.33,250,83.33c-142.88,0-210.71,122.48-227.17,157.43a21.64,21.64,0,0,0,0,18.44c16.46,35,84.29,157.47,227.17,157.47,142.38,0,210.26-121.61,227-157.07A22.41,22.41,0,0,0,477,240.4Zm-87.46,86.9-.91.87C349,365.66,302.32,384.67,250,384.67c-52.47,0-99.23-19.12-139-56.83-.3-.3-.61-.59-.92-.88a106.72,106.72,0,0,1,0-153.94l.91-.87c39.74-37.7,86.5-56.82,139-56.82,52.32,0,99,19,138.64,56.5l.91.87A107,107,0,0,1,389.55,327.3Z"/><path class="cls-1" d="M250,140A110,110,0,1,0,360,250,110,110,0,0,0,250,140Zm37.41,143.17A50,50,0,1,1,300,250,49.88,49.88,0,0,1,287.41,283.17Z"/></svg>