<svg id="Layer_1" data-name="Layer 1" xmlns="http://www.w3.org/2000/svg" viewBox="0 0 500 500"><defs><style>.cls-1{fill:currentColor;}</style></defs><path class="cls-1" d="M216.67,33.33A16.67,16.67,0,0,0,200,50c0,84.28-116.67,150-116.67,266.67,0,88.63,96.06,145.93,129.89,149.64a16.66,16.66,0,0,0,14-29.23v0c-15.17-12.3-43.85-48-43.85-80.56,0-53.49,50-73.15,50-73.15-28.51,80.67,64.93,90.42,83.73,170.28h0a16.61,16.61,0,0,0,26,9.87c.3-.22.59-.45.88-.69,2.71-1.76,72.69-48,72.69-146.12,0-40.05-20-108.83-34.44-139.29,0,0,0-.08,0-.1l0-.07a16.65,16.65,0,0,0-31.87,3.1v.06c0,.18-7.69,34.18-33.62,53,0-78.52-56.7-159.64-86.59-193.19a16.18,16.18,0,0,0-1.47-1.73A16.65,16.65,0,0,0,216.67,33.33Z"/></svg>