<svg id="Layer_1" data-name="Layer 1" xmlns="http://www.w3.org/2000/svg" viewBox="0 0 500 500"><defs><style>.cls-1{fill:currentColor;}</style></defs><path class="cls-1" d="M156.25,72.92c-63.1,0-114.58,51.48-114.58,114.58,0,42.67,32.16,82.84,71.37,124S200.5,394.47,239,432.92a15.63,15.63,0,0,0,22.1,0C299.5,394.47,347.76,352.74,387,311.54s71.37-81.37,71.37-124c0-63.1-51.48-114.58-114.58-114.58-36.21,0-67.74,19.44-93.75,52.47C224,92.36,192.46,72.92,156.25,72.92Zm0,31.25c30.51,0,55.9,16.23,80.55,55.21a15.61,15.61,0,0,0,26.4,0c24.65-39,50-55.21,80.55-55.21a83.09,83.09,0,0,1,83.33,83.33c0,25-25.13,63-62.74,102.52-34.3,36-76.94,73.7-114.34,110.17C212.6,363.72,170,326.06,135.66,290,98.05,250.49,72.92,212.54,72.92,187.5A83.09,83.09,0,0,1,156.25,104.17Z"/></svg>