<svg id="Layer_1" data-name="Layer 1" xmlns="http://www.w3.org/2000/svg" viewBox="0 0 500 500"><defs><style>.cls-1{fill:currentColor;}</style></defs><path class="cls-1" d="M426.68,51.88a22.07,22.07,0,0,0-2.3.2H291.67a20.84,20.84,0,0,0-.59,41.67h85.71L235.27,235.27a20.84,20.84,0,0,0,28.86,30.06l.6-.6L406.25,123.21v85.12a20.84,20.84,0,1,0,41.67.59V75.48a20.85,20.85,0,0,0-21.24-23.6ZM130.21,83.33c-42.89,0-78.13,35.24-78.13,78.13V369.79c0,42.89,35.24,78.13,78.13,78.13H338.54c42.89,0,78.13-35.24,78.13-78.13v-99a20.84,20.84,0,0,0-41.67-.59v99.55a36.28,36.28,0,0,1-36.46,36.46H130.21a36.28,36.28,0,0,1-36.46-36.46V161.46A36.28,36.28,0,0,1,130.21,125h99a20.84,20.84,0,0,0,.59-41.67H130.21Z"/></svg>