<svg id="Layer_1" data-name="Layer 1" xmlns="http://www.w3.org/2000/svg" viewBox="0 0 500 500"><defs><style>.cls-1{fill:currentColor;}</style></defs><path class="cls-1" d="M135.42,135.42C72.38,135.42,20.83,187,20.83,250S72.38,364.58,135.42,364.58h41.66a20.83,20.83,0,1,0,.59-41.66H135.42a72.92,72.92,0,0,1,0-145.84h41.66a20.83,20.83,0,1,0,.59-41.66H135.42Zm187.5,0a20.83,20.83,0,1,0-.59,41.66h42.25a72.92,72.92,0,1,1,0,145.84H322.92a20.83,20.83,0,1,0-.59,41.66h42.25c63,0,114.59-51.54,114.59-114.58S427.62,135.42,364.58,135.42ZM125,229.17a20.83,20.83,0,1,0-.59,41.66H375a20.83,20.83,0,1,0,.59-41.66H125Z"/></svg>