<svg id="Layer_1" data-name="Layer 1" xmlns="http://www.w3.org/2000/svg" viewBox="0 0 500 500"><defs><style>.cls-1{fill:currentColor;}</style></defs><path class="cls-1" d="M250,41.67A83.56,83.56,0,0,0,166.67,125v41.67H130.21a47.12,47.12,0,0,0-46.88,46.87V411.46a47.12,47.12,0,0,0,46.88,46.87H369.79a47.12,47.12,0,0,0,46.88-46.87V213.54a47.12,47.12,0,0,0-46.88-46.87H197.92V125a52,52,0,0,1,103.94-4A15.63,15.63,0,1,0,333,118.61h0A83.49,83.49,0,0,0,250,41.67ZM130.21,197.92h49.52a15.91,15.91,0,0,0,5.06,0h185a15.39,15.39,0,0,1,15.63,15.62V411.46a15.39,15.39,0,0,1-15.63,15.62H130.21a15.39,15.39,0,0,1-15.63-15.62V213.54A15.39,15.39,0,0,1,130.21,197.92ZM250,281.25a31.25,31.25,0,1,0,31.25,31.25A31.25,31.25,0,0,0,250,281.25Z"/></svg>