<svg id="Layer_1" data-name="Layer 1" xmlns="http://www.w3.org/2000/svg" viewBox="0 0 500 500"><defs><style>.cls-1{fill:currentColor;}</style></defs><path class="cls-1" d="M412,193.3c-.66-1.36-1.39-2.69-2.17-4-.4-.65-.8-1.28-1.23-1.91-.84-1.24-1.75-2.45-2.71-3.61s-2-2.27-3-3.33-2.18-2.08-3.34-3-2.36-1.86-3.61-2.71-2.54-1.63-3.87-2.36a46.51,46.51,0,0,0-8.39-3.57,45.09,45.09,0,0,0-4.47-1.16c-.76-.16-1.53-.3-2.3-.42a45.61,45.61,0,0,0-4.7-.48q-1.2-.06-2.4-.06H333.33V125a83,83,0,0,0-20.95-55.08l-.44-.51c-.59-.65-1.19-1.28-1.8-1.92-.31-.32-.61-.65-.93-1-.52-.53-1-1-1.59-1.55s-.84-.82-1.27-1.22-1-.87-1.46-1.3-1-.89-1.53-1.32-.91-.75-1.38-1.12l-1.72-1.36-1.33-1c-.63-.46-1.25-.91-1.89-1.34l-1.3-.88c-.67-.44-1.34-.88-2-1.3l-1.3-.79c-.7-.41-1.41-.82-2.13-1.22l-1.3-.71c-.74-.39-1.47-.77-2.22-1.14l-1.33-.65c-.75-.35-1.51-.7-2.27-1L281.81,48c-.78-.32-1.55-.62-2.34-.92l-1.39-.53c-.79-.28-1.58-.55-2.38-.81l-1.44-.46c-.79-.24-1.6-.47-2.41-.69l-1.47-.4q-1.23-.3-2.46-.57c-.5-.11-1-.23-1.51-.33-.82-.17-1.66-.31-2.5-.45l-1.52-.26c-.86-.13-1.72-.23-2.59-.33l-1.49-.19c-.94-.09-1.88-.15-2.83-.21-.43,0-.87-.08-1.3-.1-1.39-.07-2.78-.1-4.18-.1s-2.79,0-4.18.1c-.43,0-.87.07-1.3.1-1,.06-1.89.12-2.83.21l-1.49.19c-.87.1-1.73.2-2.59.33l-1.52.26c-.84.14-1.68.28-2.5.45-.51.1-1,.22-1.51.33q-1.23.27-2.46.57l-1.47.4c-.81.22-1.62.45-2.41.69l-1.44.46c-.8.26-1.59.53-2.38.81l-1.39.53c-.79.3-1.56.6-2.34.92l-1.36.59c-.76.33-1.52.68-2.28,1l-1.32.65c-.75.37-1.48.75-2.22,1.14l-1.3.71c-.72.4-1.43.81-2.13,1.22l-1.3.79c-.68.42-1.35.86-2,1.3l-1.3.88c-.64.43-1.26.88-1.89,1.34l-1.33,1L198,60c-.47.37-.93.74-1.38,1.12s-1,.88-1.53,1.32-1,.86-1.46,1.3-.85.81-1.27,1.22-1.07,1-1.59,1.55c-.32.32-.62.65-.93,1-.61.64-1.21,1.27-1.8,1.92l-.44.51a83,83,0,0,0-21,55.08v41.67H130.21a47.17,47.17,0,0,0-44,30.83c-.53,1.43-1,2.9-1.38,4.39a45.47,45.47,0,0,0-.94,4.56,46,46,0,0,0-.55,7.09V411.46a46,46,0,0,0,.55,7.09,45.47,45.47,0,0,0,.94,4.56A46.23,46.23,0,0,0,88,431.7a47.07,47.07,0,0,0,6.11,9.5q1.44,1.74,3,3.33t3.34,3c.58.48,1.17.94,1.77,1.4a48.65,48.65,0,0,0,5.71,3.67,46.51,46.51,0,0,0,8.39,3.57,45.91,45.91,0,0,0,11.47,2.06q1.2.06,2.4.06H369.79q1.2,0,2.4-.06a45.61,45.61,0,0,0,4.7-.48c.77-.12,1.54-.26,2.3-.42a45.09,45.09,0,0,0,4.47-1.16,46.51,46.51,0,0,0,8.39-3.57c1.33-.73,2.62-1.51,3.87-2.36s2.45-1.75,3.61-2.71,2.27-2,3.34-3,2.07-2.17,3-3.33,1.87-2.37,2.71-3.61c.43-.63.83-1.26,1.23-1.91.78-1.29,1.51-2.62,2.17-4a46.25,46.25,0,0,0,4.66-20.24V213.54A46.25,46.25,0,0,0,412,193.3ZM197.92,125c0-1,0-2,.08-2.93.05-.37.11-.73.14-1.1a51.88,51.88,0,0,1,37-45.91l.23-.07c.7-.2,1.39-.39,2.1-.56l.51-.12,1.88-.41.8-.14c.55-.1,1.11-.2,1.66-.28l1.1-.14,1.43-.17c.49,0,1-.08,1.5-.11l1.07-.08c.87,0,1.75-.06,2.63-.06s1.76,0,2.63.06l1.07.08c.5,0,1,.06,1.5.11l1.43.17,1.1.14c.55.08,1.11.18,1.66.28l.8.14,1.88.41.51.12c.71.17,1.4.36,2.1.56l.23.07A51.88,51.88,0,0,1,301.86,121c0,.37.09.73.14,1.1.05,1,.08,2,.08,2.93v41.67H197.92Zm187.5,286.46c0,.55,0,1.09-.08,1.63a16.16,16.16,0,0,1-.61,3.08c-.15.5-.32,1-.51,1.45a15.3,15.3,0,0,1-3.31,5c-.35.35-.72.68-1.1,1a15.3,15.3,0,0,1-3.86,2.3,14.53,14.53,0,0,1-1.44.52,15.65,15.65,0,0,1-3.09.6,14.59,14.59,0,0,1-1.63.08H130.21a15.39,15.39,0,0,1-15.63-15.62V213.54a15.39,15.39,0,0,1,15.63-15.62h49.52a15.91,15.91,0,0,0,5.06,0H315.21a15.91,15.91,0,0,0,5.06,0h49.52a14.59,14.59,0,0,1,1.63.08,15.65,15.65,0,0,1,3.09.6,14.53,14.53,0,0,1,1.44.52,15.3,15.3,0,0,1,3.86,2.3c.38.32.75.65,1.1,1a15.3,15.3,0,0,1,3.31,5c.19.47.36,1,.51,1.45a16.16,16.16,0,0,1,.61,3.08c.05.54.08,1.08.08,1.63Z"/><circle class="cls-1" cx="250" cy="312.5" r="31.25"/></svg>