<?xml version="1.0" encoding="utf-8"?>
<!-- Generator: Adobe Illustrator 24.1.0, SVG Export Plug-In . SVG Version: 6.00 Build 0)  -->
<svg version="1.1" id="Layer_1" xmlns="http://www.w3.org/2000/svg" xmlns:xlink="http://www.w3.org/1999/xlink" x="0px" y="0px"
	 viewBox="0 0 12 6" style="enable-background:new 0 0 12 6;" xml:space="preserve">
<style type="text/css">
	.st0{fill:#309BD6;}
</style>
<desc>Created with Sketch.</desc>
<g>
	<path class="st0" d="M10.3,1H7.5C7.2,1,7,0.8,7,0.5S7.2,0,7.5,0h4C11.8,0,12,0.2,12,0.5v4C12,4.8,11.8,5,11.5,5S11,4.8,11,4.5V1.7
		L6.9,5.9C6.7,6,6.3,6,6.1,5.9L3.5,3.2L0.9,5.9C0.7,6,0.3,6,0.1,5.9C0,5.7,0,5.3,0.1,5.1l3-3C3.3,2,3.7,2,3.9,2.1l2.6,2.6L10.3,1z"
		/>
</g>
</svg>
