<svg id="Layer_1" data-name="Layer 1" xmlns="http://www.w3.org/2000/svg" viewBox="0 0 500 500"><defs><style>.cls-1{fill:currentColor;}</style></defs><path class="cls-1" d="M446,89.53c-6.37-7.5-18.12-16.45-38-16.45-14.25,0-31.4,4.6-57.35,15.36l-3.12,1.29c-110.78,46-211.22,88.69-282.83,120.19-11.19,4.92-45.22,19.89-43.89,51.2.56,13.52,8,31.93,40.16,43l2.38.82c9,3.09,27.67,9.54,46.84,15.05a137.33,137.33,0,0,0,14.74,3.4V442.71c0,20.48,25.28,33.11,41.67,20.83l87.67-72.42c26.32,17.6,56.69,37.66,61.89,41.09,15.84,10.46,30.15,15.53,43.74,15.53,21.37,0,49-11.42,59.09-65.81,9.6-51.6,20.68-123.67,28.77-176.29,3.45-22.46,6.28-40.88,8.09-51.68C459.55,132.15,461.22,107.44,446,89.53Zm-21,59.3c-5.95,35.69-23.08,153.85-36.75,227.4-5.23,28.15-14.65,40.28-28.37,40.28-7.54,0-16.38-3.67-26.52-10.36-13.75-9.09-83.17-55-98.24-65.77-13.75-9.83-32.72-21.65-8.93-44.92,8.47-8.29,64-61.28,107.19-102.52,4.61-4.41.75-11.13-4.38-11.13a6.54,6.54,0,0,0-3.61,1.16c-58.27,38.64-139.07,92.28-149.36,99.27s-20.3,11.46-33.65,11.46a85.52,85.52,0,0,1-23.57-3.77c-20.24-5.82-40-12.74-47.7-15.39-29.64-10.16-22.61-23.34,6.17-36,115.4-50.76,264.72-112.65,285.34-121.22,20.08-8.34,35-13,45.38-13C425.65,104.33,430.27,117.62,425.07,148.83Z"/></svg>