<svg id="Layer_1" data-name="Layer 1" xmlns="http://www.w3.org/2000/svg" viewBox="0 0 500 500"><defs><style>.cls-1{fill:currentColor;}</style></defs><path class="cls-1" d="M437.5,229.17a31,31,0,0,0-23.14,10.41H375a20.85,20.85,0,0,0-20,15L331.94,333,302,70.54A20.83,20.83,0,0,0,260.79,69l-37.66,195.9-26.42-74a20.85,20.85,0,0,0-19-13.82c-8.53-.59-16.42,4.74-19.78,12.62L132.1,250H85.65a31.25,31.25,0,1,0,0,41.67h60.19A20.83,20.83,0,0,0,165,279l10.34-24.11,34.22,95.83a20.84,20.84,0,0,0,40.09-3.07L276,210.51l26.22,229.36a20.81,20.81,0,0,0,18.91,18.39c.6.05,1.19.07,1.8.07a20.85,20.85,0,0,0,20-14.95l47.67-162.13h23.77a31.2,31.2,0,1,0,23.15-52.08Z"/></svg>