<svg id="Layer_1" data-name="Layer 1" xmlns="http://www.w3.org/2000/svg" viewBox="0 0 500 500"><defs><style>.cls-1{fill:currentColor;}</style></defs><path class="cls-1" d="M453.13,41.67c-135.6,0-206.36,40.7-241.68,83.86C180,163.9,178.19,199.36,178,207.78a15.94,15.94,0,0,0-.53,1.61,208.43,208.43,0,0,0-27.14,51H99a15.63,15.63,0,1,0-.44,31.25H234.38a15.63,15.63,0,0,0,.44-31.25h-51a182.8,182.8,0,0,1,18.29-31.84c13-.56,54-3.45,104.55-20.76,60.53-20.72,130.56-62.6,161.15-145.1a15.61,15.61,0,0,0-14.64-21ZM425.94,75C396,130.14,345.12,161.61,296.49,178.26c-39.3,13.46-68.29,16.75-85.82,18.09,2.39-12.81,7.85-30.15,25-51C261.94,113.15,317,80.27,425.94,75ZM94.14,312.52a42.29,42.29,0,0,0-42.06,42.05v82.54a42.29,42.29,0,0,0,42.06,42.06H239.2a42.28,42.28,0,0,0,42-42.08V354.57a42.29,42.29,0,0,0-42.05-42.05Zm0,31.25h145a10.56,10.56,0,0,1,10.8,10.8v82.54a10.55,10.55,0,0,1-10.78,10.81H94.14a10.56,10.56,0,0,1-10.81-10.81V354.57A10.56,10.56,0,0,1,94.14,343.77Z"/></svg>