<svg id="Layer_1" data-name="Layer 1" xmlns="http://www.w3.org/2000/svg" viewBox="0 0 500 500"><defs><style>.cls-1{fill:currentColor;}</style></defs><path class="cls-1" d="M250,41.67C135.13,41.67,41.67,135.13,41.67,250S135.13,458.33,250,458.33,458.33,364.87,458.33,250,364.87,41.67,250,41.67Zm0,31.25A177.08,177.08,0,1,1,72.92,250,176.84,176.84,0,0,1,250,72.92Zm-.85,72.93A15.68,15.68,0,0,0,239.4,150l-67.71,62.5A15.63,15.63,0,0,0,192.29,236c.21-.18.41-.37.6-.56l41.49-38.29v141.4a15.63,15.63,0,1,0,31.25.44V197.14l41.48,38.29A15.62,15.62,0,1,0,328.91,213l-.6-.56L260.6,150A15.66,15.66,0,0,0,249.15,145.85Z"/></svg>