<svg id="Layer_1" data-name="Layer 1" xmlns="http://www.w3.org/2000/svg" viewBox="0 0 500 500"><defs><style>.cls-1{fill:currentColor;}</style></defs><path class="cls-1" d="M424.11,375.64H75.89c-7.39,0-13.39,6.93-13.39,15.47V422c0,8.54,6,15.46,13.39,15.46H424.11c7.39,0,13.39-6.92,13.39-15.46V391.11C437.5,382.57,431.5,375.64,424.11,375.64Z"/><path class="cls-1" d="M424.11,62.5H75.89C68.5,62.5,62.5,69.42,62.5,78v30.93c0,8.54,6,15.47,13.39,15.47H424.11c7.39,0,13.39-6.93,13.39-15.47V78C437.5,69.42,431.5,62.5,424.11,62.5Z"/><path class="cls-1" d="M424.11,271.26H75.89c-7.39,0-13.39,6.93-13.39,15.47v30.92c0,8.55,6,15.47,13.39,15.47H424.11c7.39,0,13.39-6.92,13.39-15.47V286.73C437.5,278.19,431.5,271.26,424.11,271.26Z"/><path class="cls-1" d="M424.11,166.88H75.89c-7.39,0-13.39,6.92-13.39,15.47v30.92c0,8.54,6,15.47,13.39,15.47H424.11c7.39,0,13.39-6.93,13.39-15.47V182.35C437.5,173.8,431.5,166.88,424.11,166.88Z"/></svg>