<svg xmlns="http://www.w3.org/2000/svg" viewBox="0 0 500 500"><path d="M250.1,52.08A15.64,15.64,0,0,0,236,60.73L182.35,168.07,54.91,187.68a15.63,15.63,0,0,0-8.67,26.49l88.16,88.16L114.77,429.91a15.63,15.63,0,0,0,22.66,16.24L250,387.41l112.57,58.74a15.62,15.62,0,0,0,22.66-16.24L365.6,302.33l88.16-88.16a15.63,15.63,0,0,0-8.67-26.49L317.65,168.07,264,60.73A15.64,15.64,0,0,0,250.1,52.08Zm-.1,50.56,43.31,86.63a15.62,15.62,0,0,0,11.6,8.46l104.94,16.16-71.94,71.94a15.61,15.61,0,0,0-4.39,13.43l16.13,104.89-92.43-48.21a15.61,15.61,0,0,0-14.44,0l-92.43,48.21,16.13-104.89a15.61,15.61,0,0,0-4.39-13.43L90.15,213.89l104.94-16.16a15.62,15.62,0,0,0,11.6-8.46Z"/></svg>