<svg xmlns="http://www.w3.org/2000/svg" viewBox="0 0 500 500"><path d="M444.63,150.2c.31,4.35.31,8.7.31,13.05C444.94,296,343.9,449,159.21,449A283.74,283.74,0,0,1,5,403.9a206,206,0,0,0,24.25,1.25,201.12,201.12,0,0,0,124.68-42.91A100.61,100.61,0,0,1,60,292.6a127,127,0,0,0,19,1.55,106.09,106.09,0,0,0,26.43-3.42A100.44,100.44,0,0,1,24.9,192.17v-1.24a101.13,101.13,0,0,0,45.39,12.74A100.57,100.57,0,0,1,39.2,69.36,285.48,285.48,0,0,0,246.27,174.45a113,113,0,0,1-2.49-23,100.52,100.52,0,0,1,173.8-68.71,197.74,197.74,0,0,0,63.74-24.25,100.15,100.15,0,0,1-44.15,55.34A201.2,201.2,0,0,0,495,98.27a216,216,0,0,1-50.37,51.93Z"/></svg>